<svg width="152" height="32" viewBox="0 0 152 32" fill="none" xmlns="http://www.w3.org/2000/svg">
<path d="M20.0176 19.1738H19.9988C20.002 19.1809 20.0051 19.188 20.0082 19.1951C19.8562 19.5413 19.7222 19.8972 19.6073 20.2615C19.289 21.2706 19.1173 22.3443 19.1171 23.4579V19.1738V17.0641V17.0623V17.0605C19.1171 16.7012 19.135 16.3461 19.1699 15.9959C19.2823 14.8686 19.571 13.793 20.0082 12.7967C20.0113 12.7896 20.0144 12.7825 20.0176 12.7754C20.1761 12.4162 20.3539 12.0674 20.5498 11.7303C21.2751 10.4819 22.2472 9.39341 23.3998 8.53115C23.8515 8.19324 24.3309 7.89008 24.8339 7.62563L25.5213 8.53826L26.7964 10.2311L28.7128 12.7754L28.7676 12.8482C27.6231 12.9601 26.5314 13.2513 25.5213 13.6934C24.7643 14.0247 24.0531 14.4408 23.3998 14.9295C22.9659 15.2541 22.5576 15.6107 22.1784 15.9959C21.2783 16.9102 20.5422 17.9852 20.0176 19.1738Z" fill="url(#paint0_linear_254_619)"/>
<path d="M23.7305 6.16062C23.1722 6.54613 22.6526 6.98315 22.1784 7.46475C21.2729 8.38453 20.5334 9.46695 20.0082 10.6639C19.8562 11.0102 19.7222 11.3661 19.6073 11.7303C19.4997 12.0716 19.4088 12.4203 19.3357 12.7754C19.3354 12.7764 19.3352 12.7774 19.335 12.7784C19.1921 13.4732 19.1171 14.1926 19.1171 14.9295V12.7754V10.6541V8.53279V8.53115C19.1171 8.17124 19.135 7.8155 19.1699 7.46475C19.2823 6.33748 19.571 5.26184 20.0082 4.26557C20.2787 3.64906 20.6061 3.06294 20.9837 2.51378L23.7305 6.16062Z" fill="url(#paint1_linear_254_619)"/>
<path d="M25.5213 15.8262C26.8388 15.2496 28.2952 14.9295 29.8266 14.9295C30.0002 14.9295 30.1729 14.9336 30.3445 14.9418L31.8049 16.8807L33.1531 18.6706L33.532 19.1738L36.5734 23.2116L37.5252 24.4753L38.4 25.44C38.1987 25.1956 37.6967 24.7526 37.4747 24.527C37.0955 24.1419 36.6872 23.7852 36.2533 23.4607C34.4632 22.1215 32.238 21.3279 29.8266 21.3279C28.2952 21.3279 26.8388 21.6479 25.5213 22.2245C24.7643 22.5559 24.0531 22.9719 23.3998 23.4607C22.9659 23.7852 22.5576 24.1419 22.1784 24.527C21.8552 24.8554 21.5531 25.2045 21.2743 25.5721C20.7722 26.2343 20.3459 26.9566 20.0082 27.7262C19.8562 28.0725 19.7222 28.4283 19.6073 28.7926C19.2936 29.7872 19.1186 30.9559 19.1171 32V25.5934C19.1178 25.2408 19.1357 24.8709 19.1699 24.527C19.2823 23.3998 19.571 22.3241 20.0082 21.3279C20.1691 20.9612 20.3501 20.6053 20.5498 20.2615C20.7693 19.8836 21.0114 19.5204 21.2743 19.1738C21.88 18.3749 22.5961 17.6636 23.3998 17.0623C23.946 16.6537 24.5327 16.2959 25.1528 15.9959C25.2744 15.9371 25.3972 15.8805 25.5213 15.8262Z" fill="url(#paint2_linear_254_619)"/>
<path d="M19.1171 0C19.5689 0.622168 20.2742 1.57183 20.2742 1.57183C20.009 2.0912 19.7853 2.63509 19.6073 3.19918C19.2888 4.2091 19.1171 5.28376 19.1171 6.39836V0Z" fill="url(#paint3_linear_254_619)"/>
<path d="M18.2166 19.1738H18.2353C18.2322 19.1809 18.2291 19.188 18.226 19.1951C18.3779 19.5413 18.5119 19.8972 18.6268 20.2615C18.9451 21.2706 19.1168 22.3443 19.1171 23.4579V19.1738V17.0641V17.0623V17.0605C19.1171 16.7012 19.0991 16.3461 19.0642 15.9959C18.9518 14.8686 18.6631 13.793 18.226 12.7967C18.2229 12.7896 18.2197 12.7825 18.2166 12.7754C18.0581 12.4162 17.8802 12.0674 17.6844 11.7303C16.9591 10.4819 15.9869 9.39341 14.8344 8.53115C14.3827 8.19324 13.9033 7.89008 13.4002 7.62563L12.7128 8.53826L11.4378 10.2311L9.52139 12.7754L9.46656 12.8482C10.6111 12.9601 11.7028 13.2513 12.7128 13.6934C13.4699 14.0247 14.1811 14.4408 14.8344 14.9295C15.2682 15.2541 15.6765 15.6107 16.0557 15.9959C16.9559 16.9102 17.692 17.9852 18.2166 19.1738Z" fill="url(#paint4_linear_254_619)"/>
<path d="M14.5037 6.16062C15.0619 6.54613 15.5816 6.98315 16.0557 7.46475C16.9613 8.38453 17.7008 9.46695 18.226 10.6639C18.3779 11.0102 18.5119 11.3661 18.6268 11.7303C18.7345 12.0716 18.8254 12.4203 18.8985 12.7754C18.8987 12.7764 18.8989 12.7774 18.8991 12.7784C19.0421 13.4732 19.1171 14.1926 19.1171 14.9295V12.7754V10.6541V8.53279V8.53115C19.1171 8.17124 19.0992 7.8155 19.0642 7.46475C18.9518 6.33748 18.6631 5.26184 18.226 4.26557C17.9555 3.64906 17.6281 3.06294 17.2505 2.51378L14.5037 6.16062Z" fill="url(#paint5_linear_254_619)"/>
<path d="M12.7128 15.8262C11.3953 15.2496 9.93901 14.9295 8.40761 14.9295C8.23397 14.9295 8.06129 14.9336 7.88968 14.9418L6.42925 16.8807L5.08107 18.6706L4.70212 19.1738L1.66077 23.2116L0.708928 24.4753L0 25.44C0.20136 25.1956 0.537451 24.7526 0.759484 24.527C1.13868 24.1419 1.54699 23.7852 1.98086 23.4607C3.77094 22.1215 5.9962 21.3279 8.40761 21.3279C9.93901 21.3279 11.3953 21.6479 12.7128 22.2245C13.4699 22.5559 14.1811 22.9719 14.8344 23.4607C15.2682 23.7852 15.6765 24.1419 16.0557 24.527C16.379 24.8554 16.6811 25.2045 16.9599 25.5721C17.4619 26.2343 17.8883 26.9566 18.226 27.7262C18.3779 28.0725 18.5119 28.4283 18.6268 28.7926C18.9405 29.7872 19.1155 30.9559 19.1171 32V25.5934C19.1164 25.2408 19.0985 24.8709 19.0642 24.527C18.9518 23.3998 18.6631 22.3241 18.226 21.3279C18.0651 20.9612 17.8841 20.6053 17.6844 20.2615C17.4649 19.8836 17.2227 19.5204 16.9599 19.1738C16.3541 18.3749 15.6381 17.6636 14.8344 17.0623C14.2882 16.6537 13.7015 16.2959 13.0814 15.9959C12.9598 15.9371 12.8369 15.8805 12.7128 15.8262Z" fill="url(#paint6_linear_254_619)"/>
<path d="M19.1171 0C18.6652 0.622168 17.96 1.57183 17.96 1.57183C18.2252 2.0912 18.4489 2.63509 18.6268 3.19918C18.9454 4.2091 19.1171 5.28376 19.1171 6.39836V0Z" fill="url(#paint7_linear_254_619)"/>
<path d="M53.0783 9.14286C49.9102 9.14286 48 7.31429 48 4.68571C48 2.05714 49.9102 0 53.0783 0H78.2835V5.48571H56.13C55.5709 5.48571 55.3612 5.89714 55.3612 6.17143C55.3612 6.44571 55.5709 6.85714 56.13 6.85714H74.137C77.3051 6.85714 79.2153 8.68571 79.2153 11.3143C79.2153 13.9429 77.3051 16 74.137 16H48V10.5143H71.0853C71.6444 10.5143 71.8541 10.1029 71.8541 9.82857C71.8541 9.55429 71.6444 9.14286 71.0853 9.14286H53.0783Z" fill="#00A9FF"/>
<path d="M82.9516 16V0H90.3128V8.77714L103.265 0H113.934L102.123 8L113.934 16H103.265L96.7888 11.6114L90.3128 16H82.9516Z" fill="#00A9FF"/>
<path d="M130.645 16V10.5143L116.97 0H126.684L134.325 5.89714L141.966 0H151.68L138.006 10.5143V16H130.645Z" fill="#00A9FF"/>
<line x1="48" y1="20.2133" x2="151.68" y2="20.2133" stroke="#89CFF3" stroke-width="0.533333"/>
<path d="M48 29.8399V22.6399H53.238V24.0713H49.4764V25.7685H53.0303V27.0628H49.4764V29.8399H48Z" fill="#89CFF3"/>
<path d="M60.5907 29.8399V22.6399H62.0671V29.8399H60.5907Z" fill="#89CFF3"/>
<path d="M69.4253 29.8399V22.6399H71.1392L74.0327 27.4828H74.1737V22.6399H75.6204V29.8399H73.9363L71.0056 24.997H70.8721V29.8399H69.4253Z" fill="#89CFF3"/>
<path d="M88.1214 29.8399L87.7356 28.6313H84.664L84.2782 29.8399H82.7498L85.1611 22.6399H87.2385L89.6572 29.8399H88.1214ZM85.0795 27.337H87.3201L86.3408 24.2599H86.0588L85.0795 27.337Z" fill="#89CFF3"/>
<path d="M96.789 29.8399V22.6399H98.5028L101.396 27.4828H101.537V22.6399H102.984V29.8399H101.3L98.3693 24.997H98.2357V29.8399H96.789Z" fill="#89CFF3"/>
<path d="M113.638 30.0799C111.62 30.0799 110.225 28.5028 110.225 26.2399C110.225 23.977 111.62 22.3999 113.638 22.3999C115.003 22.3999 116.405 23.1028 116.709 25.2199H115.292C115.025 24.2942 114.409 23.8828 113.638 23.8828C112.532 23.8828 111.686 24.8513 111.686 26.2399C111.686 27.6199 112.532 28.597 113.638 28.597C114.409 28.597 115.025 28.1856 115.292 27.2513H116.709C116.405 29.377 115.018 30.0799 113.638 30.0799Z" fill="#89CFF3"/>
<path d="M123.961 29.8399V22.6399H125.438V29.8399H123.961Z" fill="#89CFF3"/>
<path d="M137.945 29.8399L137.559 28.6313H134.488L134.102 29.8399H132.573L134.985 22.6399H137.062L139.481 29.8399H137.945ZM134.903 27.337H137.144L136.164 24.2599H135.882L134.903 27.337Z" fill="#89CFF3"/>
<path d="M146.613 29.8399V22.6399H148.089V28.4085H151.68V29.8399H146.613Z" fill="#89CFF3"/>
<line x1="48" y1="31.68" x2="151.68" y2="31.68" stroke="#89CFF3" stroke-width="0.64"/>
<defs>
<linearGradient id="paint0_linear_254_619" x1="38.3942" y1="25.5508" x2="19.1337" y2="32.0413" gradientUnits="userSpaceOnUse">
<stop stop-color="#00A9FF"/>
<stop offset="0.497545" stop-color="#89CFF3"/>
<stop offset="1" stop-color="#00A9FF"/>
</linearGradient>
<linearGradient id="paint1_linear_254_619" x1="38.3942" y1="25.5508" x2="19.1337" y2="32.0413" gradientUnits="userSpaceOnUse">
<stop stop-color="#00A9FF"/>
<stop offset="0.497545" stop-color="#89CFF3"/>
<stop offset="1" stop-color="#00A9FF"/>
</linearGradient>
<linearGradient id="paint2_linear_254_619" x1="38.3942" y1="25.5508" x2="19.1337" y2="32.0413" gradientUnits="userSpaceOnUse">
<stop stop-color="#00A9FF"/>
<stop offset="0.497545" stop-color="#89CFF3"/>
<stop offset="1" stop-color="#00A9FF"/>
</linearGradient>
<linearGradient id="paint3_linear_254_619" x1="38.3942" y1="25.5508" x2="19.1337" y2="32.0413" gradientUnits="userSpaceOnUse">
<stop stop-color="#00A9FF"/>
<stop offset="0.497545" stop-color="#89CFF3"/>
<stop offset="1" stop-color="#00A9FF"/>
</linearGradient>
<linearGradient id="paint4_linear_254_619" x1="-0.16" y1="25.5508" x2="19.1004" y2="32.0413" gradientUnits="userSpaceOnUse">
<stop stop-color="#00A9FF"/>
<stop offset="0.497545" stop-color="#89CFF3"/>
<stop offset="1" stop-color="#00A9FF"/>
</linearGradient>
<linearGradient id="paint5_linear_254_619" x1="-0.16" y1="25.5508" x2="19.1004" y2="32.0413" gradientUnits="userSpaceOnUse">
<stop stop-color="#00A9FF"/>
<stop offset="0.497545" stop-color="#89CFF3"/>
<stop offset="1" stop-color="#00A9FF"/>
</linearGradient>
<linearGradient id="paint6_linear_254_619" x1="-0.16" y1="25.5508" x2="19.1004" y2="32.0413" gradientUnits="userSpaceOnUse">
<stop stop-color="#00A9FF"/>
<stop offset="0.497545" stop-color="#89CFF3"/>
<stop offset="1" stop-color="#00A9FF"/>
</linearGradient>
<linearGradient id="paint7_linear_254_619" x1="-0.16" y1="25.5508" x2="19.1004" y2="32.0413" gradientUnits="userSpaceOnUse">
<stop stop-color="#00A9FF"/>
<stop offset="0.497545" stop-color="#89CFF3"/>
<stop offset="1" stop-color="#00A9FF"/>
</linearGradient>
</defs>
</svg>
